<svg width="24" height="24" viewBox="0 0 24 24" fill="none" xmlns="http://www.w3.org/2000/svg">
<path d="M12 24C18.6274 24 24 18.6274 24 12C24 5.37258 18.6274 0 12 0C5.37258 0 0 5.37258 0 12C0 18.6274 5.37258 24 12 24Z" fill="#6F6B63"/>
<path fill-rule="evenodd" clip-rule="evenodd" d="M18.4847 9.99941L20.5705 12.0851L18.4963 14.1593L16.4105 12.0735L18.4847 9.99941ZM5.67404 10.011L7.7598 12.0968L5.68562 14.1709L3.59985 12.0851L5.67404 10.011ZM8.8912 10.9653L10.9653 8.89121L12.0967 7.7598L15.2728 10.9358L17.3469 8.86164L14.1709 5.68562L12.0852 3.59985L8.87954 6.80541L6.8054 8.87955L8.8912 10.9653ZM13.2049 15.2791L15.2791 13.205L17.3648 15.2907L15.2907 17.3648L12.0852 20.5704L9.9994 18.4846L6.82331 15.3086L8.89746 13.2344L12.0735 16.4105L13.2049 15.2791ZM14.1414 12.0673L12.0556 9.9815L9.98149 12.0556L12.0673 14.1414L14.1414 12.0673Z" fill="#F0B90B"/>
</svg>
