<svg width="32" height="32" viewBox="0 0 32 32" fill="none" xmlns="http://www.w3.org/2000/svg">
<path d="M21.5868 2.66663H10.4134C5.56008 2.66663 2.66675 5.55996 2.66675 10.4133V21.5733C2.66675 26.44 5.56008 29.3333 10.4134 29.3333H21.5734C26.4268 29.3333 29.3201 26.44 29.3201 21.5866V10.4133C29.3334 5.55996 26.4401 2.66663 21.5868 2.66663ZM13.2134 21.5866C13.2134 22.44 12.5201 23.1333 11.6534 23.1333C10.8001 23.1333 10.1067 22.44 10.1067 21.5866V17.24C10.1067 16.3866 10.8001 15.6933 11.6534 15.6933C12.5201 15.6933 13.2134 16.3866 13.2134 17.24V21.5866ZM21.8934 21.5866C21.8934 22.44 21.2001 23.1333 20.3467 23.1333C19.4801 23.1333 18.7867 22.44 18.7867 21.5866V10.4133C18.7867 9.55996 19.4801 8.86663 20.3467 8.86663C21.2001 8.86663 21.8934 9.55996 21.8934 10.4133V21.5866Z" fill="white"/>
</svg>
