<svg width="33" height="33" viewBox="0 0 33 33" fill="none" xmlns="http://www.w3.org/2000/svg">
<rect x="0.5" width="32" height="33" rx="8" fill="#2ED5AC"/>
<path d="M20.69 7H12.31C8.67 7 6.5 9.17 6.5 12.81V21.18C6.5 24.83 8.67 27 12.31 27H20.68C24.32 27 26.49 24.83 26.49 21.19V12.81C26.5 9.17 24.33 7 20.69 7ZM12.97 15.98C13.26 15.69 13.74 15.69 14.03 15.98L15.75 17.7V11.51C15.75 11.1 16.09 10.76 16.5 10.76C16.91 10.76 17.25 11.1 17.25 11.51V17.7L18.97 15.98C19.26 15.69 19.74 15.69 20.03 15.98C20.32 16.27 20.32 16.75 20.03 17.04L17.03 20.04C16.96 20.11 16.88 20.16 16.79 20.2C16.7 20.24 16.6 20.26 16.5 20.26C16.4 20.26 16.31 20.24 16.21 20.2C16.12 20.16 16.04 20.11 15.97 20.04L12.97 17.04C12.68 16.75 12.68 16.28 12.97 15.98ZM22.74 22.22C20.73 22.89 18.62 23.23 16.5 23.23C14.38 23.23 12.27 22.89 10.26 22.22C9.87 22.09 9.66 21.66 9.79 21.27C9.92 20.88 10.34 20.66 10.74 20.8C14.46 22.04 18.55 22.04 22.27 20.8C22.66 20.67 23.09 20.88 23.22 21.27C23.34 21.67 23.13 22.09 22.74 22.22Z" fill="white"/>
</svg>
