<svg width="40" height="40" viewBox="0 0 40 40" fill="none" xmlns="http://www.w3.org/2000/svg">
<path d="M33.3334 20V30C33.3334 33.6833 30.35 36.6666 26.6667 36.6666H13.3334C9.65002 36.6666 6.66669 33.6833 6.66669 30V20C6.66669 19.0833 7.41669 18.3333 8.33335 18.3333H11.6167C12.5334 18.3333 13.2834 19.0833 13.2834 20V25.2333C13.2834 26.4666 13.9667 27.6 15.05 28.1833C15.5334 28.45 16.0667 28.5833 16.6167 28.5833C17.25 28.5833 17.8834 28.4 18.4334 28.0333L20.0167 27L21.4834 27.9833C22.5 28.6666 23.8 28.75 24.8834 28.1666C25.9834 27.5833 26.6667 26.4666 26.6667 25.2166V20C26.6667 19.0833 27.4167 18.3333 28.3334 18.3333H31.6667C32.5834 18.3333 33.3334 19.0833 33.3334 20Z" fill="white"/>
<path d="M35.8334 11.6666V13.3333C35.8334 15.1666 34.95 16.6666 32.5 16.6666H7.50002C4.95002 16.6666 4.16669 15.1666 4.16669 13.3333V11.6666C4.16669 9.83331 4.95002 8.33331 7.50002 8.33331H32.5C34.95 8.33331 35.8334 9.83331 35.8334 11.6666Z" fill="white"/>
<path d="M19.4 8.33336H10.2C9.63336 7.71669 9.65003 6.76669 10.25 6.16669L12.6167 3.80002C13.2334 3.18336 14.25 3.18336 14.8667 3.80002L19.4 8.33336Z" fill="white"/>
<path d="M29.7833 8.33336H20.5833L25.1166 3.80002C25.7333 3.18336 26.75 3.18336 27.3666 3.80002L29.7333 6.16669C30.3333 6.76669 30.35 7.71669 29.7833 8.33336Z" fill="white"/>
<path d="M23.2834 18.3333C24.2 18.3333 24.95 19.0833 24.95 20V25.2166C24.95 26.55 23.4667 27.35 22.3667 26.6L20.8667 25.6C20.3167 25.2333 19.6 25.2333 19.0334 25.6L17.4667 26.6333C16.3667 27.3666 14.9 26.5666 14.9 25.25V20C14.9 19.0833 15.65 18.3333 16.5667 18.3333H23.2834Z" fill="white"/>
</svg>
