<svg width="32" height="32" viewBox="0 0 32 32" fill="none" xmlns="http://www.w3.org/2000/svg">
<path d="M21.5866 2.66669H10.4133C5.55996 2.66669 2.66663 5.56002 2.66663 10.4134V21.5734C2.66663 26.44 5.55996 29.3334 10.4133 29.3334H21.5733C26.4266 29.3334 29.32 26.44 29.32 21.5867V10.4134C29.3333 5.56002 26.44 2.66669 21.5866 2.66669ZM10.9066 22.36C10.88 22.36 10.84 22.36 10.8133 22.36C9.51996 22.24 8.30663 21.64 7.39996 20.68C5.26663 18.44 5.26663 14.8 7.39996 12.56L10.32 9.49335C11.36 8.40002 12.76 7.78669 14.2533 7.78669C15.7466 7.78669 17.1466 8.38669 18.1866 9.49335C20.32 11.7334 20.32 15.3734 18.1866 17.6134L16.7333 19.1467C16.3466 19.5467 15.72 19.56 15.32 19.1867C14.92 18.8 14.9066 18.1734 15.28 17.7734L16.7333 16.24C18.1466 14.76 18.1466 12.3467 16.7333 10.88C15.4133 9.49335 13.0933 9.49335 11.76 10.88L8.83996 13.9467C7.42663 15.4267 7.42663 17.84 8.83996 19.3067C9.41329 19.92 10.1866 20.2934 11 20.3734C11.5466 20.4267 11.9466 20.92 11.8933 21.4667C11.8533 21.9734 11.4133 22.36 10.9066 22.36ZM24.6 19.4534L21.68 22.52C20.64 23.6134 19.24 24.2267 17.7466 24.2267C16.2533 24.2267 14.8533 23.6267 13.8133 22.52C11.68 20.28 11.68 16.64 13.8133 14.4L15.2666 12.8667C15.6533 12.4667 16.28 12.4534 16.68 12.8267C17.08 13.2134 17.0933 13.84 16.72 14.24L15.2666 15.7734C13.8533 17.2534 13.8533 19.6667 15.2666 21.1334C16.5866 22.52 18.9066 22.5334 20.24 21.1334L23.16 18.0667C24.5733 16.5867 24.5733 14.1734 23.16 12.7067C22.5866 12.0934 21.8133 11.72 21 11.64C20.4533 11.5867 20.0533 11.0934 20.1066 10.5467C20.16 10 20.64 9.58669 21.2 9.65335C22.4933 9.78669 23.7066 10.3734 24.6133 11.3334C26.7333 13.56 26.7333 17.2134 24.6 19.4534Z" fill="#FF1C5E"/>
</svg>
