<svg width="32" height="32" viewBox="0 0 32 32" fill="none" xmlns="http://www.w3.org/2000/svg">
<path d="M21.5865 2.66663H10.4132C5.55984 2.66663 2.6665 5.55996 2.6665 10.4133V21.5733C2.6665 26.44 5.55984 29.3333 10.4132 29.3333H21.5732C26.4265 29.3333 29.3198 26.44 29.3198 21.5866V10.4133C29.3332 5.55996 26.4398 2.66663 21.5865 2.66663ZM10.9065 22.36C10.8798 22.36 10.8398 22.36 10.8132 22.36C9.51984 22.24 8.3065 21.64 7.39984 20.68C5.2665 18.44 5.2665 14.8 7.39984 12.56L10.3198 9.49329C11.3598 8.39996 12.7598 7.78663 14.2532 7.78663C15.7465 7.78663 17.1465 8.38663 18.1865 9.49329C20.3198 11.7333 20.3198 15.3733 18.1865 17.6133L16.7332 19.1466C16.3465 19.5466 15.7198 19.56 15.3198 19.1866C14.9198 18.8 14.9065 18.1733 15.2798 17.7733L16.7332 16.24C18.1465 14.76 18.1465 12.3466 16.7332 10.88C15.4132 9.49329 13.0932 9.49329 11.7598 10.88L8.83984 13.9466C7.4265 15.4266 7.4265 17.84 8.83984 19.3066C9.41317 19.92 10.1865 20.2933 10.9998 20.3733C11.5465 20.4266 11.9465 20.92 11.8932 21.4666C11.8532 21.9733 11.4132 22.36 10.9065 22.36ZM24.5998 19.4533L21.6798 22.52C20.6398 23.6133 19.2398 24.2266 17.7465 24.2266C16.2532 24.2266 14.8532 23.6266 13.8132 22.52C11.6798 20.28 11.6798 16.64 13.8132 14.4L15.2665 12.8666C15.6532 12.4666 16.2798 12.4533 16.6798 12.8266C17.0798 13.2133 17.0932 13.84 16.7198 14.24L15.2665 15.7733C13.8532 17.2533 13.8532 19.6666 15.2665 21.1333C16.5865 22.52 18.9065 22.5333 20.2398 21.1333L23.1598 18.0666C24.5732 16.5866 24.5732 14.1733 23.1598 12.7066C22.5865 12.0933 21.8132 11.72 20.9998 11.64C20.4532 11.5866 20.0532 11.0933 20.1065 10.5466C20.1598 9.99996 20.6398 9.58663 21.1998 9.65329C22.4932 9.78663 23.7065 10.3733 24.6132 11.3333C26.7332 13.56 26.7332 17.2133 24.5998 19.4533Z" fill="#2ED5AC"/>
</svg>
