<svg width="32" height="32" viewBox="0 0 32 32" fill="none" xmlns="http://www.w3.org/2000/svg">
<path fill-rule="evenodd" clip-rule="evenodd" d="M26.3698 5.9065C27.8203 5.29574 29.3754 6.52231 29.1193 8.07523L26.0941 26.4175C25.8023 28.186 23.8599 29.2008 22.2374 28.3195C20.8797 27.582 18.8653 26.447 17.0498 25.2607C16.1433 24.6683 13.3674 22.7688 13.7086 21.4167C14.0003 20.2606 18.6669 15.9167 21.3335 13.3334C22.381 12.3186 21.9039 11.7324 20.6669 12.6667C17.5981 14.9844 12.6712 18.5083 11.0419 19.5C9.60438 20.375 8.85382 20.5243 7.95856 20.375C6.32372 20.1026 4.80802 19.6807 3.57058 19.1678C1.89809 18.4744 1.97956 16.176 3.56945 15.5067L26.3698 5.9065Z" fill="white"/>
</svg>
