<svg width="28" height="28" viewBox="0 0 28 28" fill="none" xmlns="http://www.w3.org/2000/svg">
<path d="M24.465 18.76C24.185 21.875 21.9333 23.9167 18.6666 23.9167H8.16665C4.94665 23.9167 2.33331 21.3034 2.33331 18.0834V9.91671C2.33331 6.74337 4.24665 4.52671 7.22165 4.15337C7.52498 4.10671 7.83998 4.08337 8.16665 4.08337H18.6666C18.97 4.08337 19.2616 4.09504 19.5416 4.14171C22.33 4.46837 24.22 6.41671 24.465 9.24004C24.5 9.57837 24.22 9.85837 23.8816 9.85837H22.0733C20.9533 9.85837 19.915 10.29 19.1683 11.06C18.2816 11.9234 17.8383 13.1367 17.9433 14.35C18.13 16.4734 19.9966 18.1417 22.2133 18.1417H23.8816C24.22 18.1417 24.5 18.4217 24.465 18.76Z" fill="#2ED5AC"/>
<path d="M25.6667 12.7983V15.2016C25.6667 15.8433 25.1533 16.3683 24.5 16.3916H22.2133C20.9533 16.3916 19.7983 15.4699 19.6933 14.2099C19.6233 13.4749 19.9033 12.7866 20.3933 12.3083C20.825 11.8649 21.42 11.6083 22.0733 11.6083H24.5C25.1533 11.6316 25.6667 12.1566 25.6667 12.7983Z" fill="#2ED5AC"/>
</svg>
