<svg width="33" height="33" viewBox="0 0 33 33" fill="none" xmlns="http://www.w3.org/2000/svg">
<rect x="0.5" width="32" height="33" rx="8" fill="#2ED5AC"/>
<path d="M25.75 13.1501C23.44 9.52005 20.06 7.43005 16.5 7.43005C14.72 7.43005 12.99 7.95005 11.41 8.92005C9.83 9.90005 8.41 11.3301 7.25 13.1501C6.25 14.7201 6.25 17.2701 7.25 18.8401C9.56 22.4801 12.94 24.5601 16.5 24.5601C18.28 24.5601 20.01 24.0401 21.59 23.0701C23.17 22.0901 24.59 20.6601 25.75 18.8401C26.75 17.2801 26.75 14.7201 25.75 13.1501ZM16.5 20.0401C14.26 20.0401 12.46 18.2301 12.46 16.0001C12.46 13.7701 14.26 11.9601 16.5 11.9601C18.74 11.9601 20.54 13.7701 20.54 16.0001C20.54 18.2301 18.74 20.0401 16.5 20.0401Z" fill="white"/>
<path d="M16.5 13.14C14.93 13.14 13.65 14.42 13.65 16C13.65 17.57 14.93 18.85 16.5 18.85C18.07 18.85 19.36 17.57 19.36 16C19.36 14.43 18.07 13.14 16.5 13.14Z" fill="white"/>
</svg>
